<svg id="Capa_1" enable-background="new 0 0 512 512" height="512" viewBox="0 0 512 512" width="512" xmlns="http://www.w3.org/2000/svg"><g><g fill="#66334d"><path d="m76 212c-8.284 0-15-6.716-15-15v-30c0-8.284 6.716-15 15-15s15 6.716 15 15v30c0 8.284-6.716 15-15 15z"/><path d="m361 167v30c0 8.28-6.72 15-15 15h-180c-8.28 0-15-6.72-15-15v-30c0-24.81 20.19-45 45-45h120c24.81 0 45 20.19 45 45z"/><path d="m361 167v30c0 8.28-6.72 15-15 15h-90v-90h60c24.81 0 45 20.19 45 45z"/></g><path d="m361 167v30c0 8.28-6.72 15-15 15h-90v-90h60c24.81 0 45 20.19 45 45z" fill="#4d2739"/><path d="m512 227v120l-256 24-256-24v-120c0-24.81 20.19-45 45-45h422c24.81 0 45 20.19 45 45z" fill="#8c466a"/><path d="m512 227v120l-256 24v-189h211c24.81 0 45 20.19 45 45z" fill="#66334d"/><path d="m512 347v120c0 24.81-20.19 45-45 45h-422c-24.81 0-45-20.19-45-45v-120z" fill="#ff8fb8"/><path d="m512 347v120c0 24.81-20.19 45-45 45h-211v-165z" fill="#ff5f96"/><path d="m256 242c-57.9 0-105 47.1-105 105 0 57.79 47.01 105 105 105 58.02 0 105-47.23 105-105 0-57.9-47.1-105-105-105z" fill="#fff2fb"/><path d="m361 347c0 57.77-46.98 105-105 105v-210c57.9 0 105 47.1 105 105z" fill="#ffdfea"/><path d="m256 302c-24.81 0-45 20.19-45 45 0 24.75 20.13 45 45 45 24.85 0 45-20.23 45-45 0-24.81-20.19-45-45-45z" fill="#ffdfea"/><path d="m301 347c0 24.77-20.15 45-45 45v-90c24.81 0 45 20.19 45 45z" fill="#ffbfbf"/><circle cx="76" cy="257" fill="#97de3d" r="15"/><path d="m436 272h-30c-8.284 0-15-6.716-15-15s6.716-15 15-15h30c8.284 0 15 6.716 15 15s-6.716 15-15 15z" fill="#59c36a"/><path d="m271 15v30c0 8.28-6.72 15-15 15s-15-6.72-15-15v-30c0-8.28 6.72-15 15-15s15 6.72 15 15z" fill="#ffe580"/><path d="m271 15v30c0 8.28-6.72 15-15 15v-60c8.28 0 15 6.72 15 15z" fill="#fc6"/><path d="m294.787 81.213c-5.858-5.858-5.858-15.355 0-21.213l21.213-21.213c5.857-5.858 15.355-5.858 21.213 0s5.858 15.355 0 21.213l-21.213 21.213c-5.857 5.858-15.355 5.858-21.213 0z" fill="#fc6"/><path d="m196 81.213-21.213-21.213c-5.857-5.858-5.857-15.355 0-21.213s15.354-5.858 21.213 0l21.213 21.213c5.857 5.858 5.857 15.355 0 21.213-5.857 5.857-15.354 5.859-21.213 0z" fill="#ffe580"/></g></svg>